<?xml version="1.0" standalone="no"?>
<!DOCTYPE svg PUBLIC "-//W3C//DTD SVG 20010904//EN" "http://www.w3.org/TR/2001/REC-SVG-20010904/DTD/svg10.dtd">
<svg version="1.0" xmlns="http://www.w3.org/2000/svg" width="2016.000000pt" height="2082.000000pt"
    viewBox="0 0 2016.000000 2082.000000" preserveAspectRatio="xMidYMid meet">

    <g transform="translate(0.000000,2082.000000) scale(0.100000,-0.100000)" fill="#000000" stroke="none">
        <path d="M291 18709 c-65 -70 -114 -633 -82 -941 66 -627 333 -1042 851 -1321
368 -199 873 -310 1775 -392 475 -43 697 -71 734 -94 10 -6 10 -13 2 -28 -12
-23 -2 -40 39 -65 65 -40 60 -77 -15 -114 -16 -8 -45 -26 -64 -40 -19 -13 -46
-27 -60 -31 -14 -3 -34 -13 -45 -22 -27 -24 -131 -21 -192 6 -27 12 -77 31
-110 43 -34 12 -97 43 -141 69 -122 72 -309 158 -398 182 -44 11 -98 26 -120
32 -52 15 -391 15 -465 0 -30 -7 -93 -17 -140 -23 -47 -7 -102 -18 -122 -26
-20 -7 -83 -25 -140 -40 -57 -14 -107 -30 -113 -35 -5 -5 -15 -9 -23 -9 -23 0
-123 -50 -118 -59 3 -4 -20 -21 -50 -37 -61 -32 -187 -128 -193 -147 -2 -7 -9
-19 -16 -27 -40 -49 -89 -250 -65 -265 6 -4 7 -13 1 -23 -6 -11 -6 -24 1 -35
5 -10 7 -24 4 -32 -5 -15 30 -96 47 -106 5 -4 7 -21 4 -39 -6 -29 -2 -37 44
-81 28 -27 56 -49 62 -49 20 -1 70 -47 63 -58 -3 -6 3 -13 14 -17 11 -3 20
-11 20 -17 0 -6 10 -20 23 -32 13 -12 26 -30 30 -40 4 -11 13 -16 22 -12 9 3
18 -1 21 -9 4 -8 12 -15 20 -15 8 0 14 -7 14 -15 0 -9 8 -19 18 -22 9 -4 20
-12 25 -19 9 -16 95 -64 114 -64 9 0 13 -6 9 -15 -3 -8 -1 -15 4 -15 6 0 28
-18 50 -40 22 -22 45 -40 50 -40 6 0 10 -7 10 -15 0 -13 33 -32 84 -49 15 -5
16 -9 6 -21 -11 -13 -8 -15 14 -15 15 0 42 -11 60 -25 18 -14 43 -25 55 -25
12 0 42 -12 67 -26 24 -14 51 -23 59 -20 10 4 19 -3 25 -18 7 -18 14 -23 29
-19 13 3 23 0 27 -10 3 -8 17 -18 32 -22 14 -3 31 -13 37 -22 6 -8 22 -17 36
-19 13 -2 42 -8 63 -13 22 -5 52 -7 68 -4 15 3 28 2 28 -3 0 -5 36 -9 81 -9
44 0 83 -3 85 -6 2 -4 18 -2 34 4 25 9 33 9 39 -2 7 -10 13 -11 30 -2 12 7 26
9 31 6 5 -3 31 1 56 10 26 9 53 14 60 11 7 -3 16 -2 18 3 3 4 25 8 49 8 25 1
57 8 73 16 17 8 52 13 84 12 30 -2 71 3 90 10 91 32 104 34 115 25 8 -7 18 -4
30 10 10 12 24 19 30 16 6 -2 17 5 23 15 7 10 19 19 28 19 8 0 25 9 37 20 21
21 21 21 29 -1 8 -22 9 -22 23 -3 12 15 16 16 23 6 5 -7 29 -15 53 -16 38 -3
55 -9 98 -33 2 -2 -2 -9 -9 -18 -10 -12 -9 -16 4 -21 13 -5 15 -14 11 -35 -7
-29 -7 -29 49 -29 52 0 57 -2 66 -26 14 -37 16 -290 6 -745 -18 -783 34 -1181
241 -1824 45 -142 85 -229 163 -351 269 -425 319 -521 296 -581 -18 -47 -37
-166 -41 -262 -14 -354 -18 -428 -26 -447 -16 -43 7 -238 37 -321 28 -75 88
-153 118 -153 7 0 23 -11 36 -25 13 -14 31 -25 40 -25 9 0 32 -7 50 -16 28
-15 42 -15 95 -5 76 13 175 14 207 2 27 -11 108 -84 108 -97 0 -5 26 -34 58
-65 58 -57 58 -57 70 -166 7 -60 12 -140 12 -178 0 -188 66 -601 121 -762 16
-45 31 -101 35 -125 3 -24 13 -53 20 -65 8 -12 14 -28 14 -34 0 -7 29 -85 65
-175 36 -90 65 -166 65 -168 0 -3 20 -48 45 -101 25 -53 54 -117 64 -143 10
-26 39 -90 63 -142 25 -52 51 -113 58 -135 7 -22 16 -44 20 -50 25 -31 129
-372 145 -475 4 -25 9 -196 10 -380 3 -355 16 -456 80 -607 192 -451 204 -792
45 -1271 -102 -309 -137 -424 -160 -527 -34 -154 -88 -257 -208 -393 -118
-134 -157 -202 -165 -288 -6 -74 -14 -90 -118 -235 -258 -357 -335 -533 -264
-599 25 -23 35 -25 140 -28 102 -3 114 -6 118 -23 12 -43 66 -53 321 -57 494
-8 979 64 1129 167 53 36 110 116 136 191 10 30 33 80 50 110 34 61 42 154 20
261 -23 118 -8 319 24 319 7 0 50 -27 96 -60 115 -83 167 -89 191 -24 26 68
-4 329 -49 426 -13 27 -27 89 -35 159 -8 63 -28 195 -45 294 -54 322 -66 475
-66 840 1 372 6 411 84 643 65 190 147 543 150 642 1 14 3 111 4 215 4 233 35
625 50 644 8 10 25 12 62 7 193 -24 300 -25 395 -5 52 11 115 24 140 29 75 14
300 90 300 100 0 6 9 10 21 10 20 0 134 45 194 76 246 129 314 152 335 113 32
-59 22 -425 -16 -589 -8 -36 -18 -83 -23 -105 -4 -22 -42 -141 -83 -265 -91
-268 -103 -338 -103 -570 1 -300 41 -456 216 -846 135 -302 119 -695 -49
-1174 -45 -129 -114 -410 -132 -540 -21 -156 -35 -191 -127 -331 -114 -173
-146 -255 -148 -374 -2 -91 -9 -116 -75 -261 -59 -129 -114 -320 -115 -394 0
-92 16 -120 88 -154 136 -63 259 -61 425 7 62 26 62 26 62 -9 0 -45 26 -70 81
-77 296 -40 707 18 921 130 120 63 169 138 202 309 8 44 22 93 30 109 55 109
53 211 -5 390 -38 118 -50 207 -29 220 6 4 40 -7 76 -24 151 -71 205 -16 160
159 -8 30 -19 82 -26 115 -6 33 -31 102 -55 153 -44 93 -49 114 -101 412 -13
75 -33 161 -65 283 -42 159 -56 700 -24 920 19 125 26 146 123 347 71 149 88
195 141 385 30 108 43 195 56 365 11 142 86 451 116 485 5 5 9 16 9 25 0 8 10
35 22 60 11 25 31 72 43 105 29 78 142 351 157 379 11 21 81 219 157 446 21
63 48 158 60 212 30 128 32 131 117 132 240 4 824 -17 879 -31 33 -8 80 -19
105 -23 70 -12 229 -77 287 -116 29 -20 56 -33 62 -30 5 4 29 0 53 -8 104 -34
389 -42 450 -14 20 10 49 18 63 18 31 0 78 31 160 104 130 116 181 158 266
216 101 69 113 72 135 28 9 -18 100 -158 201 -310 215 -325 249 -388 264 -495
6 -43 19 -123 30 -179 63 -339 38 -614 -97 -1067 -59 -199 -73 -235 -155 -402
-84 -172 -99 -200 -171 -315 -51 -82 -128 -240 -178 -364 -74 -188 -152 -304
-310 -467 -126 -129 -180 -211 -180 -273 0 -60 -19 -94 -135 -241 -130 -165
-149 -193 -212 -312 -40 -74 -44 -88 -41 -140 4 -75 26 -88 142 -87 72 1 82
-1 100 -23 32 -36 154 -46 521 -40 428 7 672 39 782 103 118 69 203 251 203
438 0 127 22 219 64 269 32 39 32 39 141 -27 110 -67 131 -74 165 -56 49 26
64 214 34 404 -31 188 -3 451 69 666 14 41 39 120 56 175 73 243 142 414 290
717 61 125 111 231 111 236 0 6 52 116 115 246 63 130 136 289 161 354 26 64
91 207 145 317 190 384 196 493 48 877 -193 501 -213 580 -213 818 0 180 28
359 64 405 4 6 14 31 23 58 25 76 53 94 99 64 25 -17 46 -46 128 -172 49 -76
291 -573 350 -720 52 -129 131 -352 175 -495 12 -41 34 -100 48 -131 14 -31
31 -76 37 -100 19 -68 101 -239 184 -384 94 -163 118 -222 127 -322 5 -51 23
-152 39 -225 16 -73 39 -176 51 -228 40 -185 70 -316 91 -400 76 -308 -8 -968
-178 -1388 -18 -45 -52 -147 -74 -225 -111 -382 -146 -467 -271 -653 -131
-196 -159 -260 -159 -364 0 -42 -42 -144 -71 -174 -5 -6 -9 -17 -9 -25 0 -9
-7 -29 -15 -45 -8 -15 -15 -32 -15 -37 0 -5 -9 -28 -19 -52 -55 -119 -75 -251
-47 -305 42 -81 208 -113 366 -72 41 11 76 20 78 20 1 0 2 -11 2 -25 0 -40 34
-53 165 -66 268 -25 682 29 851 111 73 35 130 107 158 196 20 64 27 81 56 134
26 47 26 150 0 280 -24 124 -25 161 -3 223 20 55 23 55 125 27 93 -26 120 -25
146 3 39 42 21 215 -39 362 -29 73 -33 96 -46 270 -24 336 -27 546 -9 680 41
317 105 665 186 1010 6 28 36 154 65 280 105 458 159 635 250 830 105 226 108
389 10 633 -141 355 -170 497 -162 802 6 217 27 349 86 520 103 304 120 355
195 600 42 138 74 267 102 400 13 69 38 179 54 245 16 66 39 176 50 245 12 69
28 161 35 205 8 44 21 141 30 215 8 74 20 171 25 215 5 44 16 179 25 300 8
121 20 279 25 350 70 906 29 1736 -113 2290 -19 77 -45 179 -56 228 -11 48
-27 102 -34 120 -8 17 -25 59 -38 92 -59 155 -183 390 -252 480 -97 125 -187
222 -269 288 -133 107 -161 140 -215 252 -205 427 -411 653 -748 822 -126 64
-174 81 -301 108 -65 13 -143 32 -173 41 -48 15 -92 16 -349 11 -283 -5 -538
12 -694 48 -54 12 -296 35 -371 35 -106 0 -422 -27 -467 -39 -33 -9 -237 -38
-530 -76 -69 -9 -168 -22 -220 -31 -214 -33 -363 -44 -725 -54 -411 -11 -702
-24 -915 -42 -294 -24 -678 -14 -791 21 -15 5 -32 5 -39 1 -15 -9 -91 11 -87
24 3 9 123 86 134 86 26 0 211 148 313 250 235 234 355 461 424 800 62 308 56
778 -15 1052 -6 24 -20 43 -42 57 -17 12 -51 34 -74 49 -56 38 -82 35 -115
-14 -25 -37 -38 -74 -107 -299 -46 -150 -120 -377 -130 -400 -6 -11 -25 -72
-44 -135 -62 -206 -86 -247 -233 -398 -133 -136 -139 -140 -193 -121 -23 8
-39 8 -59 0 -15 -6 -70 -13 -122 -14 -63 -3 -137 -14 -220 -35 -278 -68 -406
-79 -1107 -92 -290 -6 -620 -15 -733 -20 -460 -20 -489 -17 -580 70 -23 22
-50 40 -59 40 -10 0 -25 8 -35 19 -9 10 -47 26 -84 36 -37 10 -77 24 -90 32
-12 7 -82 27 -155 43 -73 15 -157 38 -187 49 -30 11 -74 20 -97 21 -23 0 -48
6 -55 13 -7 8 -74 28 -147 47 -74 18 -160 40 -190 50 -64 21 -109 28 -199 35
-35 3 -87 12 -116 20 -100 29 -404 37 -466 12 -37 -15 -195 -35 -205 -27 -7 6
-24 1 -46 -14 -20 -13 -50 -23 -73 -23 -21 -1 -45 -8 -53 -16 -13 -12 -19 -12
-51 4 -20 11 -56 19 -79 19 -24 0 -54 7 -67 15 -38 25 -120 43 -145 31 -15 -6
-46 -5 -99 4 -161 28 -362 28 -499 -1 -54 -11 -134 -26 -178 -34 -44 -7 -98
-20 -120 -29 -22 -8 -71 -22 -110 -31 -59 -14 -171 -59 -236 -95 -9 -4 -45
-13 -80 -19 -178 -31 -250 -47 -309 -68 -36 -13 -86 -30 -111 -37 -39 -11
-132 -59 -189 -96 -8 -6 -25 -15 -38 -22 -13 -7 -21 -17 -17 -25 13 -36 -59
-46 -255 -34 -266 15 -702 30 -1100 36 -379 6 -525 16 -704 46 -734 121 -993
357 -1231 1118 -75 237 -93 281 -116 281 -10 0 -36 16 -57 35 -64 57 -109 68
-141 34z" />
    </g>
</svg>