<svg xmlns="http://www.w3.org/2000/svg" viewBox="0 0 31 32" width="31" height="32" shape-rendering="crispEdges">
  <!-- Bruce the Wonder Yak - trot_1 frame -->
  <rect x="0" y="3" width="1" height="1" fill="#000000" opacity="1" />
  <rect x="18" y="3" width="1" height="1" fill="#000000" opacity="1" />
  <rect x="0" y="4" width="2" height="1" fill="#000000" opacity="1" />
  <rect x="7" y="4" width="5" height="1" fill="#000000" opacity="1" />
  <rect x="17" y="4" width="2" height="1" fill="#000000" opacity="1" />
  <rect x="0" y="5" width="1" height="1" fill="#000000" opacity="1" />
  <rect x="1" y="5" width="1" height="1" fill="#FFFFCC" opacity="1" />
  <rect x="2" y="5" width="5" height="1" fill="#000000" opacity="1" />
  <rect x="7" y="5" width="1" height="1" fill="#CC9966" opacity="1" />
  <rect x="8" y="5" width="1" height="1" fill="#FFCC99" opacity="1" />
  <rect x="9" y="5" width="2" height="1" fill="#CC9966" opacity="1" />
  <rect x="11" y="5" width="1" height="1" fill="#996633" opacity="1" />
  <rect x="12" y="5" width="5" height="1" fill="#000000" opacity="1" />
  <rect x="17" y="5" width="1" height="1" fill="#FFFFCC" opacity="1" />
  <rect x="18" y="5" width="1" height="1" fill="#000000" opacity="1" />
  <rect x="0" y="6" width="1" height="1" fill="#000000" opacity="1" />
  <rect x="1" y="6" width="1" height="1" fill="#FFCC99" opacity="1" />
  <rect x="2" y="6" width="4" height="1" fill="#FFFFCC" opacity="1" />
  <rect x="6" y="6" width="1" height="1" fill="#000000" opacity="1" />
  <rect x="7" y="6" width="1" height="1" fill="#FFCC99" opacity="1" />
  <rect x="8" y="6" width="3" height="1" fill="#CC9966" opacity="1" />
  <rect x="11" y="6" width="1" height="1" fill="#996633" opacity="1" />
  <rect x="12" y="6" width="1" height="1" fill="#000000" opacity="1" />
  <rect x="13" y="6" width="1" height="1" fill="#FFCC99" opacity="1" />
  <rect x="14" y="6" width="3" height="1" fill="#FFFFCC" opacity="1" />
  <rect x="17" y="6" width="1" height="1" fill="#FFCC99" opacity="1" />
  <rect x="18" y="6" width="7" height="1" fill="#000000" opacity="1" />
  <rect x="1" y="7" width="7" height="1" fill="#000000" opacity="1" />
  <rect x="8" y="7" width="1" height="1" fill="#996633" opacity="1" />
  <rect x="9" y="7" width="1" height="1" fill="#CC9966" opacity="1" />
  <rect x="10" y="7" width="1" height="1" fill="#996633" opacity="1" />
  <rect x="11" y="7" width="7" height="1" fill="#000000" opacity="1" />
  <rect x="18" y="7" width="6" height="1" fill="#CC9966" opacity="1" />
  <rect x="24" y="7" width="1" height="1" fill="#996633" opacity="1" />
  <rect x="25" y="7" width="2" height="1" fill="#000000" opacity="1" />
  <rect x="1" y="8" width="1" height="1" fill="#000000" opacity="1" />
  <rect x="2" y="8" width="2" height="1" fill="#996633" opacity="1" />
  <rect x="4" y="8" width="1" height="1" fill="#000000" opacity="1" />
  <rect x="5" y="8" width="2" height="1" fill="#CC9966" opacity="1" />
  <rect x="7" y="8" width="1" height="1" fill="#996633" opacity="1" />
  <rect x="8" y="8" width="1" height="1" fill="#000000" opacity="1" />
  <rect x="9" y="8" width="1" height="1" fill="#CC9966" opacity="1" />
  <rect x="10" y="8" width="1" height="1" fill="#000000" opacity="1" />
  <rect x="11" y="8" width="2" height="1" fill="#CC9966" opacity="1" />
  <rect x="13" y="8" width="1" height="1" fill="#996633" opacity="1" />
  <rect x="14" y="8" width="1" height="1" fill="#000000" opacity="1" />
  <rect x="15" y="8" width="2" height="1" fill="#996633" opacity="1" />
  <rect x="17" y="8" width="1" height="1" fill="#000000" opacity="1" />
  <rect x="18" y="8" width="8" height="1" fill="#CC9966" opacity="1" />
  <rect x="26" y="8" width="1" height="1" fill="#996633" opacity="1" />
  <rect x="27" y="8" width="1" height="1" fill="#000000" opacity="1" />
  <rect x="2" y="9" width="15" height="1" fill="#000000" opacity="1" />
  <rect x="17" y="9" width="10" height="1" fill="#CC9966" opacity="1" />
  <rect x="27" y="9" width="1" height="1" fill="#000000" opacity="1" />
  <rect x="4" y="10" width="1" height="1" fill="#000000" opacity="1" />
  <rect x="5" y="10" width="1" height="1" fill="#EEEEEE" opacity="1" />
  <rect x="6" y="10" width="1" height="1" fill="#330099" opacity="1" />
  <rect x="7" y="10" width="1" height="1" fill="#DDDDDD" opacity="1" />
  <rect x="8" y="10" width="1" height="1" fill="#000000" opacity="1" />
  <rect x="9" y="10" width="1" height="1" fill="#CC9966" opacity="1" />
  <rect x="10" y="10" width="1" height="1" fill="#000000" opacity="1" />
  <rect x="11" y="10" width="1" height="1" fill="#EEEEEE" opacity="1" />
  <rect x="12" y="10" width="1" height="1" fill="#330099" opacity="1" />
  <rect x="13" y="10" width="1" height="1" fill="#DDDDDD" opacity="1" />
  <rect x="14" y="10" width="1" height="1" fill="#000000" opacity="1" />
  <rect x="15" y="10" width="1" height="1" fill="#996633" opacity="1" />
  <rect x="16" y="10" width="11" height="1" fill="#CC9966" opacity="1" />
  <rect x="27" y="10" width="1" height="1" fill="#996633" opacity="1" />
  <rect x="28" y="10" width="1" height="1" fill="#000000" opacity="1" />
  <rect x="4" y="11" width="1" height="1" fill="#000000" opacity="1" />
  <rect x="5" y="11" width="1" height="1" fill="#CCCCCC" opacity="1" />
  <rect x="6" y="11" width="1" height="1" fill="#DDDDDD" opacity="1" />
  <rect x="7" y="11" width="1" height="1" fill="#BBBBBB" opacity="1" />
  <rect x="8" y="11" width="1" height="1" fill="#000000" opacity="1" />
  <rect x="9" y="11" width="1" height="1" fill="#CC9966" opacity="1" />
  <rect x="10" y="11" width="1" height="1" fill="#000000" opacity="1" />
  <rect x="11" y="11" width="1" height="1" fill="#CCCCCC" opacity="1" />
  <rect x="12" y="11" width="1" height="1" fill="#DDDDDD" opacity="1" />
  <rect x="13" y="11" width="1" height="1" fill="#BBBBBB" opacity="1" />
  <rect x="14" y="11" width="1" height="1" fill="#000000" opacity="1" />
  <rect x="15" y="11" width="1" height="1" fill="#996633" opacity="1" />
  <rect x="16" y="11" width="12" height="1" fill="#CC9966" opacity="1" />
  <rect x="28" y="11" width="1" height="1" fill="#000000" opacity="1" />
  <rect x="5" y="12" width="3" height="1" fill="#000000" opacity="1" />
  <rect x="8" y="12" width="1" height="1" fill="#996633" opacity="1" />
  <rect x="9" y="12" width="1" height="1" fill="#CC9966" opacity="1" />
  <rect x="10" y="12" width="1" height="1" fill="#996633" opacity="1" />
  <rect x="11" y="12" width="3" height="1" fill="#000000" opacity="1" />
  <rect x="14" y="12" width="1" height="1" fill="#996633" opacity="1" />
  <rect x="15" y="12" width="13" height="1" fill="#CC9966" opacity="1" />
  <rect x="28" y="12" width="1" height="1" fill="#000000" opacity="1" />
  <rect x="6" y="13" width="1" height="1" fill="#000000" opacity="1" />
  <rect x="7" y="13" width="1" height="1" fill="#FFCC99" opacity="1" />
  <rect x="8" y="13" width="2" height="1" fill="#CC9966" opacity="1" />
  <rect x="10" y="13" width="2" height="1" fill="#996633" opacity="1" />
  <rect x="12" y="13" width="1" height="1" fill="#000000" opacity="1" />
  <rect x="13" y="13" width="2" height="1" fill="#996633" opacity="1" />
  <rect x="15" y="13" width="13" height="1" fill="#CC9966" opacity="1" />
  <rect x="28" y="13" width="1" height="1" fill="#000000" opacity="1" />
  <rect x="6" y="14" width="1" height="1" fill="#000000" opacity="1" />
  <rect x="7" y="14" width="1" height="1" fill="#FFCC99" opacity="1" />
  <rect x="8" y="14" width="2" height="1" fill="#CC9966" opacity="1" />
  <rect x="10" y="14" width="2" height="1" fill="#996633" opacity="1" />
  <rect x="12" y="14" width="1" height="1" fill="#000000" opacity="1" />
  <rect x="13" y="14" width="1" height="1" fill="#996633" opacity="1" />
  <rect x="14" y="14" width="8" height="1" fill="#CC9966" opacity="1" />
  <rect x="22" y="14" width="1" height="1" fill="#996633" opacity="1" />
  <rect x="23" y="14" width="4" height="1" fill="#CC9966" opacity="1" />
  <rect x="27" y="14" width="1" height="1" fill="#996633" opacity="1" />
  <rect x="28" y="14" width="1" height="1" fill="#000000" opacity="1" />
  <rect x="5" y="15" width="2" height="1" fill="#000000" opacity="1" />
  <rect x="7" y="15" width="3" height="1" fill="#CC9966" opacity="1" />
  <rect x="10" y="15" width="1" height="1" fill="#996633" opacity="1" />
  <rect x="11" y="15" width="1" height="1" fill="#CC9966" opacity="1" />
  <rect x="12" y="15" width="2" height="1" fill="#000000" opacity="1" />
  <rect x="14" y="15" width="8" height="1" fill="#CC9966" opacity="1" />
  <rect x="22" y="15" width="1" height="1" fill="#996633" opacity="1" />
  <rect x="23" y="15" width="4" height="1" fill="#CC9966" opacity="1" />
  <rect x="27" y="15" width="1" height="1" fill="#996633" opacity="1" />
  <rect x="28" y="15" width="1" height="1" fill="#000000" opacity="1" />
  <rect x="5" y="16" width="1" height="1" fill="#000000" opacity="1" />
  <rect x="6" y="16" width="1" height="1" fill="#FFCC99" opacity="1" />
  <rect x="7" y="16" width="1" height="1" fill="#CC9966" opacity="1" />
  <rect x="8" y="16" width="1" height="1" fill="#FFCC99" opacity="1" />
  <rect x="9" y="16" width="2" height="1" fill="#CC9966" opacity="1" />
  <rect x="11" y="16" width="1" height="1" fill="#FFCC99" opacity="1" />
  <rect x="12" y="16" width="1" height="1" fill="#CC9966" opacity="1" />
  <rect x="13" y="16" width="1" height="1" fill="#000000" opacity="1" />
  <rect x="14" y="16" width="1" height="1" fill="#996633" opacity="1" />
  <rect x="15" y="16" width="6" height="1" fill="#CC9966" opacity="1" />
  <rect x="21" y="16" width="1" height="1" fill="#996633" opacity="1" />
  <rect x="22" y="16" width="1" height="1" fill="#000000" opacity="1" />
  <rect x="23" y="16" width="3" height="1" fill="#CC9966" opacity="1" />
  <rect x="26" y="16" width="1" height="1" fill="#996633" opacity="1" />
  <rect x="27" y="16" width="1" height="1" fill="#000000" opacity="1" />
  <rect x="5" y="17" width="3" height="1" fill="#000000" opacity="1" />
  <rect x="8" y="17" width="1" height="1" fill="#CC9966" opacity="1" />
  <rect x="9" y="17" width="2" height="1" fill="#996633" opacity="1" />
  <rect x="11" y="17" width="3" height="1" fill="#000000" opacity="1" />
  <rect x="14" y="17" width="1" height="1" fill="#996633" opacity="1" />
  <rect x="15" y="17" width="6" height="1" fill="#CC9966" opacity="1" />
  <rect x="21" y="17" width="1" height="1" fill="#996633" opacity="1" />
  <rect x="22" y="17" width="1" height="1" fill="#000000" opacity="1" />
  <rect x="23" y="17" width="1" height="1" fill="#996633" opacity="1" />
  <rect x="24" y="17" width="2" height="1" fill="#CC9966" opacity="1" />
  <rect x="26" y="17" width="1" height="1" fill="#996633" opacity="1" />
  <rect x="27" y="17" width="1" height="1" fill="#000000" opacity="1" />
  <rect x="7" y="18" width="5" height="1" fill="#000000" opacity="1" />
  <rect x="12" y="18" width="2" height="1" fill="#996633" opacity="1" />
  <rect x="14" y="18" width="1" height="1" fill="#CC9966" opacity="1" />
  <rect x="15" y="18" width="1" height="1" fill="#996633" opacity="1" />
  <rect x="16" y="18" width="3" height="1" fill="#CC9966" opacity="1" />
  <rect x="19" y="18" width="4" height="1" fill="#996633" opacity="1" />
  <rect x="23" y="18" width="1" height="1" fill="#000000" opacity="1" />
  <rect x="24" y="18" width="1" height="1" fill="#996633" opacity="1" />
  <rect x="25" y="18" width="2" height="1" fill="#CC9966" opacity="1" />
  <rect x="27" y="18" width="1" height="1" fill="#000000" opacity="1" />
  <rect x="8" y="19" width="5" height="1" fill="#000000" opacity="1" />
  <rect x="13" y="19" width="2" height="1" fill="#CC9966" opacity="1" />
  <rect x="15" y="19" width="1" height="1" fill="#000000" opacity="1" />
  <rect x="16" y="19" width="6" height="1" fill="#996633" opacity="1" />
  <rect x="22" y="19" width="3" height="1" fill="#000000" opacity="1" />
  <rect x="25" y="19" width="1" height="1" fill="#996633" opacity="1" />
  <rect x="26" y="19" width="1" height="1" fill="#CC9966" opacity="1" />
  <rect x="27" y="19" width="1" height="1" fill="#000000" opacity="1" />
  <rect x="8" y="20" width="5" height="1" fill="#000000" opacity="1" />
  <rect x="13" y="20" width="1" height="1" fill="#996633" opacity="1" />
  <rect x="14" y="20" width="1" height="1" fill="#CC9966" opacity="1" />
  <rect x="15" y="20" width="11" height="1" fill="#000000" opacity="1" />
  <rect x="26" y="20" width="1" height="1" fill="#CC9966" opacity="1" />
  <rect x="27" y="20" width="1" height="1" fill="#996633" opacity="1" />
  <rect x="28" y="20" width="1" height="1" fill="#000000" opacity="1" />
  <rect x="8" y="21" width="3" height="1" fill="#000000" opacity="1" />
  <rect x="13" y="21" width="1" height="1" fill="#000000" opacity="1" />
  <rect x="14" y="21" width="1" height="1" fill="#CC9966" opacity="1" />
  <rect x="15" y="21" width="1" height="1" fill="#000000" opacity="1" />
  <rect x="21" y="21" width="5" height="1" fill="#000000" opacity="1" />
  <rect x="26" y="21" width="2" height="1" fill="#CC9966" opacity="1" />
  <rect x="28" y="21" width="1" height="1" fill="#000000" opacity="1" />
  <rect x="8" y="22" width="3" height="1" fill="#000000" opacity="1" />
  <rect x="13" y="22" width="1" height="1" fill="#000000" opacity="1" />
  <rect x="14" y="22" width="1" height="1" fill="#CC9966" opacity="1" />
  <rect x="15" y="22" width="1" height="1" fill="#000000" opacity="1" />
  <rect x="20" y="22" width="4" height="1" fill="#000000" opacity="1" />
  <rect x="25" y="22" width="1" height="1" fill="#000000" opacity="1" />
  <rect x="26" y="22" width="1" height="1" fill="#CC9966" opacity="1" />
  <rect x="27" y="22" width="1" height="1" fill="#996633" opacity="1" />
  <rect x="28" y="22" width="1" height="1" fill="#000000" opacity="1" />
  <rect x="7" y="23" width="4" height="1" fill="#000000" opacity="1" />
  <rect x="12" y="23" width="1" height="1" fill="#000000" opacity="1" />
  <rect x="13" y="23" width="1" height="1" fill="#CC9966" opacity="1" />
  <rect x="14" y="23" width="1" height="1" fill="#996633" opacity="1" />
  <rect x="15" y="23" width="1" height="1" fill="#000000" opacity="1" />
  <rect x="20" y="23" width="3" height="1" fill="#000000" opacity="1" />
  <rect x="25" y="23" width="1" height="1" fill="#000000" opacity="1" />
  <rect x="26" y="23" width="1" height="1" fill="#CC9966" opacity="1" />
  <rect x="27" y="23" width="1" height="1" fill="#000000" opacity="1" />
  <rect x="7" y="24" width="3" height="1" fill="#000000" opacity="1" />
  <rect x="12" y="24" width="1" height="1" fill="#000000" opacity="1" />
  <rect x="13" y="24" width="1" height="1" fill="#996633" opacity="1" />
  <rect x="14" y="24" width="1" height="1" fill="#000000" opacity="1" />
  <rect x="19" y="24" width="3" height="1" fill="#000000" opacity="1" />
  <rect x="24" y="24" width="1" height="1" fill="#000000" opacity="1" />
  <rect x="25" y="24" width="1" height="1" fill="#CC9966" opacity="1" />
  <rect x="26" y="24" width="1" height="1" fill="#996633" opacity="1" />
  <rect x="27" y="24" width="1" height="1" fill="#000000" opacity="1" />
  <rect x="7" y="25" width="3" height="1" fill="#000000" opacity="1" />
  <rect x="12" y="25" width="3" height="1" fill="#000000" opacity="1" />
  <rect x="19" y="25" width="3" height="1" fill="#000000" opacity="1" />
  <rect x="24" y="25" width="1" height="1" fill="#000000" opacity="1" />
  <rect x="25" y="25" width="1" height="1" fill="#996633" opacity="1" />
  <rect x="26" y="25" width="1" height="1" fill="#000000" opacity="1" />
  <rect x="7" y="26" width="3" height="1" fill="#000000" opacity="1" />
  <rect x="24" y="26" width="3" height="1" fill="#000000" opacity="1" />
</svg>